<?xml version="1.0" encoding="UTF-8" standalone="no"?>
<!-- Created with Inkscape (http://www.inkscape.org/) -->

<svg
   width="115.06271mm"
   height="128.71696mm"
   viewBox="0 0 115.06271 128.71696"
   version="1.1"
   id="svg1991"
   inkscape:version="1.2.2 (732a01da63, 2022-12-09)"
   sodipodi:docname="drawing.svg"
   xmlns:inkscape="http://www.inkscape.org/namespaces/inkscape"
   xmlns:sodipodi="http://sodipodi.sourceforge.net/DTD/sodipodi-0.dtd"
   xmlns="http://www.w3.org/2000/svg"
   xmlns:svg="http://www.w3.org/2000/svg">
  <sodipodi:namedview
     id="namedview1993"
     pagecolor="#ffffff"
     bordercolor="#000000"
     borderopacity="0.25"
     inkscape:showpageshadow="2"
     inkscape:pageopacity="0.0"
     inkscape:pagecheckerboard="0"
     inkscape:deskcolor="#d1d1d1"
     inkscape:document-units="mm"
     showgrid="false"
     inkscape:zoom="0.914906"
     inkscape:cx="271.6126"
     inkscape:cy="558.52732"
     inkscape:window-width="2560"
     inkscape:window-height="1369"
     inkscape:window-x="3832"
     inkscape:window-y="-8"
     inkscape:window-maximized="1"
     inkscape:current-layer="g40" />
  <defs
     id="defs1988">
    <clipPath
       clipPathUnits="userSpaceOnUse"
       id="clipPath46">
      <path
         d="M 0,500 H 500 V 0 H 0 Z"
         id="path44" />
    </clipPath>
    <clipPath
       clipPathUnits="userSpaceOnUse"
       id="clipPath20">
      <path
         d="M 0,500 H 500 V 0 H 0 Z"
         id="path18" />
    </clipPath>
  </defs>
  <g
     inkscape:label="Layer 1"
     inkscape:groupmode="layer"
     id="layer1"
     transform="translate(-0.88539022,-0.70967892)">
    <g
       id="g14"
       transform="matrix(0.35277777,0,0,-0.35277777,-29.777694,153.26264)"
       style="display:inline">
      <g
         id="g16"
         clip-path="url(#clipPath20)"
         style="display:inline">
        <g
           id="g22"
           transform="translate(250,432.4336)">
          <path
             d="m 0,0 -7.091,-7.796 c -26.92,-29.596 -69.155,-35.809 -99.846,-35.809 h -0.004 c -25.15,0 -44.221,4.172 -44.403,4.212 l -11.512,2.578 -0.166,-11.797 c -0.821,-58.496 6.927,-111.393 23.027,-157.221 12.979,-36.941 31.379,-69.397 54.69,-96.468 40.023,-46.476 80.46,-60.886 82.162,-61.476 l 3.143,-1.09 3.143,1.09 c 1.702,0.59 42.138,15 82.163,61.476 23.311,27.071 41.711,59.527 54.689,96.468 16.1,45.828 23.848,98.725 23.027,157.221 l -0.166,11.795 -11.511,-2.576 c -0.189,-0.042 -19.118,-4.212 -44.409,-4.212 h -0.007 c -30.688,0 -72.918,6.214 -99.838,35.809 z m 0,-2.972 5.611,-6.17 c 27.413,-30.137 70.228,-36.463 101.325,-36.463 25.509,0 44.655,4.218 44.845,4.261 l 9.111,2.038 0.13,-9.335 c 0.818,-58.258 -6.891,-110.922 -22.914,-156.529 -12.895,-36.706 -31.17,-68.946 -54.318,-95.825 C 44.115,-347.066 4.168,-361.304 2.487,-361.888 L 0,-362.75 l -2.487,0.862 c -1.681,0.584 -41.628,14.822 -81.302,60.893 -23.148,26.88 -41.423,59.12 -54.318,95.825 -16.023,45.605 -23.733,98.269 -22.915,156.529 l 0.131,9.336 9.116,-2.041 c 0.192,-0.043 19.568,-4.259 44.839,-4.259 31.094,0 73.913,6.327 101.325,36.463 L 0,-2.972"
             style="fill:#000029;fill-opacity:1;fill-rule:nonzero;stroke:none"
             id="path24" />
        </g>
        <g
           id="g26"
           transform="translate(403.4385,383.6865)">
          <path
             d="M 0,0 C 0,0 -101.41,-22.698 -153.438,34.501 -205.466,-22.698 -306.876,0 -306.876,0 c -3.527,-251.498 153.438,-305.974 153.438,-305.974 0,0 156.964,54.476 153.438,305.974"
             style="fill:#000029;fill-opacity:1;fill-rule:nonzero;stroke:none"
             id="path28" />
        </g>
      </g>
    </g>
    <text
       xml:space="preserve"
       style="font-variant:normal;font-weight:normal;font-stretch:normal;font-size:29.1043px;font-family:'Russo One';-inkscape-font-specification:RussoOne-Regular;writing-mode:lr-tb;fill:#01c4ff;fill-opacity:1;fill-rule:nonzero;stroke:none;stroke-width:0.352778"
       id="text34"
       x="26.411715"
       y="109.24622"><tspan
         sodipodi:role="line"
         id="tspan32"
         x="26.411715"
         y="109.24622"
         style="stroke-width:0.352778">VI<tspan
   style="fill:#ffffff;fill-opacity:1;stroke-width:0.352778"
   id="tspan1806">FI</tspan></tspan></text>
    <text
       xml:space="preserve"
       style="font-variant:normal;font-weight:500;font-stretch:normal;font-size:6.20039px;font-family:'Montserrat Medium';-inkscape-font-specification:Montserrat-Medium;writing-mode:lr-tb;fill:#ffffff;fill-opacity:1;fill-rule:nonzero;stroke:none;stroke-width:0.352778"
       id="text38"
       x="39.850407"
       y="117.05433"><tspan
         sodipodi:role="line"
         id="tspan36"
         x="39.850407"
         y="117.05433"
         style="stroke-width:0.352778">G A M I N G</tspan></text>
    <g
       id="g40"
       transform="matrix(0.35277777,0,0,-0.35277777,-29.777694,153.26264)"
       style="display:inline">
      <g
         id="g42"
         clip-path="url(#clipPath46)">
        <g
           id="g48"
           transform="translate(356.4658,327.4199)">
          <path
             d="m 0,0 c 0.747,1.728 1.278,3.573 1.571,5.517 1.837,12.204 -6.573,23.581 -18.776,25.418 -1.293,0.194 -2.572,0.271 -3.836,0.239 -2.616,9.109 -10.33,16.32 -20.311,17.822 -8.512,1.281 -16.668,-1.892 -22.102,-7.779 -3.385,4.074 -8.216,6.969 -13.853,7.817 -12.204,1.837 -23.591,-6.571 -25.426,-18.764 V -46.011 H 0.709 C 5.752,-41.427 9.307,-35.143 10.4,-27.88 12.034,-17.021 7.77,-6.638 0,0"
             style="fill:#ffffff;fill-opacity:1;fill-rule:nonzero;stroke:none"
             id="path50" />
        </g>
        <g
           id="g52"
           transform="translate(357.1748,281.4092)">
          <path
             d="m 0,0 c 5.043,4.583 8.598,10.868 9.691,18.131 1.634,10.859 -2.63,21.242 -10.4,27.88 0.747,1.727 1.278,3.572 1.571,5.517 1.837,12.204 -6.573,23.581 -18.776,25.418 -1.293,0.194 -2.572,0.27 -3.836,0.239 -2.616,9.108 -10.33,16.319 -20.311,17.821 -8.511,1.282 -16.668,-1.891 -22.102,-7.778 -3.385,4.073 -8.216,6.969 -13.853,7.817 -12.204,1.837 -23.591,-6.571 -25.426,-18.765 V 0"
             style="fill:none;stroke:#000029;stroke-width:3;stroke-linecap:round;stroke-linejoin:round;stroke-miterlimit:10;stroke-dasharray:none;stroke-opacity:1"
             id="path54" />
        </g>
        <g
           id="g56"
           transform="translate(254.0059,302.6704)">
          <path
             d="m 0,0 c 2.301,5.379 7.269,9.538 12.969,10.855 5.699,1.318 11.989,-0.238 16.416,-4.061"
             style="fill:none;stroke:#000029;stroke-width:3;stroke-linecap:round;stroke-linejoin:round;stroke-miterlimit:10;stroke-dasharray:none;stroke-opacity:1"
             id="path58" />
        </g>
        <g
           id="g60"
           transform="translate(292.8389,368.207)">
          <path
             d="m 0,0 c -0.281,-4.413 -2.057,-8.717 -4.969,-12.045 -2.911,-3.329 -6.941,-5.661 -11.277,-6.526"
             style="fill:none;stroke:#000029;stroke-width:3;stroke-linecap:round;stroke-linejoin:round;stroke-miterlimit:10;stroke-dasharray:none;stroke-opacity:1"
             id="path62" />
        </g>
        <g
           id="g64"
           transform="translate(356.8896,327.5557)">
          <path
             d="m 0,0 c -4.188,-3.502 -9.802,-5.247 -15.237,-4.736 -5.437,0.511 -10.626,3.273 -14.088,7.494"
             style="fill:none;stroke:#000029;stroke-width:3;stroke-linecap:round;stroke-linejoin:round;stroke-miterlimit:10;stroke-dasharray:none;stroke-opacity:1"
             id="path66" />
        </g>
        <g
           id="g68"
           transform="translate(315.1768,307.522)">
          <path
             d="m 0,0 c -0.431,6.254 -3.273,12.311 -7.809,16.638 -4.535,4.327 -10.718,6.883 -16.985,7.021"
             style="fill:none;stroke:#000029;stroke-width:3;stroke-linecap:round;stroke-linejoin:round;stroke-miterlimit:10;stroke-dasharray:none;stroke-opacity:1"
             id="path70" />
        </g>
        <g
           id="g72"
           transform="translate(318.9863,359.4819)">
          <path
             d="M 0,0 C -5.612,-2.309 -9.477,-8.322 -9.246,-14.386"
             style="fill:none;stroke:#000029;stroke-width:3;stroke-linecap:round;stroke-linejoin:round;stroke-miterlimit:10;stroke-dasharray:none;stroke-opacity:1"
             id="path74" />
        </g>
        <g
           id="g76"
           transform="translate(266.7734,336.6382)">
          <path
             d="m 0,0 c -1.316,-2.071 -3.308,-3.705 -5.596,-4.593 -2.287,-0.888 -4.859,-1.025 -7.228,-0.385"
             style="fill:none;stroke:#000029;stroke-width:3;stroke-linecap:round;stroke-linejoin:round;stroke-miterlimit:10;stroke-dasharray:none;stroke-opacity:1"
             id="path78" />
        </g>
        <g
           id="g80"
           transform="translate(183.1968,200.5156)">
          <path
             d="M 0,0 V 0 C -26.436,0 -47.867,21.431 -47.867,47.866 V 70.859 H 47.867 V 47.866 C 47.867,21.431 26.436,0 0,0 Z"
             style="fill:none;stroke:#ffffff;stroke-width:3;stroke-linecap:round;stroke-linejoin:round;stroke-miterlimit:10;stroke-dasharray:none;stroke-opacity:1"
             id="path82" />
        </g>
        <g
           id="g84"
           transform="translate(268.9365,259.1572)">
          <path
             d="M 0,0 V 0 C -12.313,3.972 -25.561,3.972 -37.873,0 V 12.217 H 0 Z"
             style="fill:#ffffff;fill-opacity:1;fill-rule:nonzero;stroke:none"
             id="path86" />
        </g>
        <g
           id="g88"
           transform="translate(268.9365,259.1572)">
          <path
             d="M 0,0 V 0 C -12.313,3.972 -25.561,3.972 -37.873,0 V 12.217 H 0 Z"
             style="fill:none;stroke:#ffffff;stroke-width:3;stroke-linecap:round;stroke-linejoin:round;stroke-miterlimit:10;stroke-dasharray:none;stroke-opacity:1"
             id="path90" />
        </g>
        <g
           id="g92"
           transform="translate(316.8027,200.5156)">
          <path
             d="M 0,0 H 0.001 C 26.437,0 47.867,21.431 47.867,47.866 V 70.859 H -47.866 V 47.866 C -47.866,21.431 -26.436,0 0,0 Z"
             style="fill:none;stroke:#ffffff;stroke-width:3;stroke-linecap:round;stroke-linejoin:round;stroke-miterlimit:10;stroke-dasharray:none;stroke-opacity:1"
             id="path94" />
        </g>
        <g
           id="g96"
           transform="translate(367.6416,264.0439)">
          <path
             d="M 0,0 H -2.972 V 7.331 H 0 C 2.024,7.331 3.665,5.689 3.665,3.665 3.665,1.641 2.024,0 0,0"
             style="fill:#ffffff;fill-opacity:1;fill-rule:nonzero;stroke:none"
             id="path98" />
        </g>
        <g
           id="g100"
           transform="translate(367.6416,264.0439)">
          <path
             d="M 0,0 H -2.972 V 7.331 H 0 C 2.024,7.331 3.665,5.689 3.665,3.665 3.665,1.641 2.024,0 0,0 Z"
             style="fill:none;stroke:#ffffff;stroke-width:3;stroke-linecap:round;stroke-linejoin:round;stroke-miterlimit:10;stroke-dasharray:none;stroke-opacity:1"
             id="path102" />
        </g>
        <g
           id="g104"
           transform="translate(132.3584,264.0439)">
          <path
             d="M 0,0 H 2.972 V 7.331 H 0 C -2.024,7.331 -3.665,5.689 -3.665,3.665 -3.665,1.641 -2.024,0 0,0"
             style="fill:#ffffff;fill-opacity:1;fill-rule:nonzero;stroke:none"
             id="path106" />
        </g>
        <g
           id="g108"
           transform="translate(132.3584,264.0439)">
          <path
             d="M 0,0 H 2.972 V 7.331 H 0 C -2.024,7.331 -3.665,5.689 -3.665,3.665 -3.665,1.641 -2.024,0 0,0 Z"
             style="fill:none;stroke:#ffffff;stroke-width:3;stroke-linecap:round;stroke-linejoin:round;stroke-miterlimit:10;stroke-dasharray:none;stroke-opacity:1"
             id="path110" />
        </g>
        <g
           id="g112"
           transform="translate(220.0498,281.6802)">
          <path
             d="M 0,0 0.089,6.772 -64.602,12.694 -66.319,0 Z"
             style="fill:#ffffff;fill-opacity:1;fill-rule:nonzero;stroke:none"
             id="path114" />
        </g>
        <g
           id="g116"
           transform="translate(220.0498,281.6802)">
          <path
             d="M 0,0 0.089,6.772 -64.602,12.694 -66.319,0 Z"
             style="fill:none;stroke:#ffffff;stroke-width:3;stroke-linecap:round;stroke-linejoin:round;stroke-miterlimit:10;stroke-dasharray:none;stroke-opacity:1"
             id="path118" />
        </g>
        <g
           id="g120"
           transform="translate(279.9502,281.6802)">
          <path
             d="M 0,0 -0.089,6.772 64.602,12.694 66.319,0 Z"
             style="fill:#000029;fill-opacity:1;fill-rule:nonzero;stroke:none"
             id="path122" />
        </g>
        <g
           id="g124"
           transform="translate(279.9502,281.6802)">
          <path
             d="M 0,0 -0.089,6.772 64.602,12.694 66.319,0 Z"
             style="fill:none;stroke:#000029;stroke-width:3;stroke-linecap:round;stroke-linejoin:round;stroke-miterlimit:10;stroke-dasharray:none;stroke-opacity:1"
             id="path126" />
        </g>
        <g
           id="g128"
           transform="translate(242.3076,222.1885)">
          <path
             d="M 0,0 C 0,0 0.53,-8.947 -4.731,-17.396"
             style="fill:none;stroke:#ffffff;stroke-width:3;stroke-linecap:round;stroke-linejoin:round;stroke-miterlimit:10;stroke-dasharray:none;stroke-opacity:1"
             id="path130" />
        </g>
        <g
           id="g132"
           transform="translate(257.6924,222.1885)">
          <path
             d="M 0,0 C 0,0 -0.53,-8.949 4.732,-17.398"
             style="fill:none;stroke:#ffffff;stroke-width:3;stroke-linecap:round;stroke-linejoin:round;stroke-miterlimit:10;stroke-dasharray:none;stroke-opacity:1"
             id="path134" />
        </g>
        <g
           id="g136"
           transform="translate(163.834,254.1597)">
          <path
             d="m 0,0 c -0.081,-0.271 -0.179,-0.531 -0.25,-0.808 -2.902,-11.417 4.001,-23.025 15.418,-25.929 11.418,-2.902 23.027,4.001 25.93,15.418 0.069,0.277 0.108,0.553 0.166,0.829 z"
             style="fill:#01c4ff;fill-opacity:1;fill-rule:nonzero;stroke:none"
             id="path138" />
        </g>
        <g
           id="g140"
           transform="translate(163.834,254.1597)">
          <path
             d="m 0,0 c -0.081,-0.271 -0.179,-0.531 -0.25,-0.808 -2.902,-11.417 4.001,-23.025 15.418,-25.929 11.418,-2.902 23.027,4.001 25.93,15.418 0.069,0.277 0.108,0.553 0.166,0.829 z"
             style="fill:none;stroke:#01c4ff;stroke-width:3;stroke-linecap:round;stroke-linejoin:round;stroke-miterlimit:10;stroke-dasharray:none;stroke-opacity:1"
             id="path142" />
        </g>
        <g
           id="g144"
           transform="translate(336.166,254.1597)"
           style="display:inline">
          <path
             d="m 0,0 c 0.08,-0.271 0.179,-0.531 0.249,-0.808 2.903,-11.417 -4,-23.025 -15.418,-25.929 -11.417,-2.902 -23.026,4.001 -25.929,15.418 -0.07,0.277 -0.107,0.553 -0.167,0.829 z"
             style="fill:#01c4ff;fill-opacity:1;fill-rule:nonzero;stroke:none"
             id="path146" />
        </g>
        <g
           id="g148"
           transform="translate(336.166,254.1597)">
          <path
             d="m 0,0 c 0.08,-0.271 0.179,-0.531 0.249,-0.808 2.903,-11.417 -4,-23.025 -15.418,-25.929 -11.417,-2.902 -23.026,4.001 -25.929,15.418 -0.07,0.277 -0.107,0.553 -0.167,0.829 z"
             style="fill:none;stroke:#01c4ff;stroke-width:3;stroke-linecap:round;stroke-linejoin:round;stroke-miterlimit:10;stroke-dasharray:none;stroke-opacity:1"
             id="path150" />
        </g>
        <g
           id="g152"
           transform="translate(142.8252,281.4092)">
          <path
             d="m 0,0 c -5.043,4.583 -8.598,10.868 -9.691,18.131 -1.635,10.859 2.63,21.242 10.399,27.88 -0.746,1.727 -1.278,3.572 -1.57,5.517 -1.837,12.204 6.572,23.581 18.777,25.418 1.293,0.194 2.571,0.27 3.835,0.239 2.616,9.108 10.331,16.319 20.311,17.821 8.512,1.282 16.668,-1.891 22.102,-7.778 3.385,4.073 8.216,6.969 13.853,7.817 12.204,1.837 23.591,-6.571 25.426,-18.765 V 0"
             style="fill:none;stroke:#01c4ff;stroke-width:3;stroke-linecap:round;stroke-linejoin:round;stroke-miterlimit:10;stroke-dasharray:none;stroke-opacity:1"
             id="path154" />
        </g>
        <g
           id="g156"
           transform="translate(245.9937,302.6704)">
          <path
             d="m 0,0 c -2.3,5.379 -7.268,9.538 -12.968,10.855 -5.699,1.318 -11.989,-0.238 -16.417,-4.061"
             style="fill:none;stroke:#01c4ff;stroke-width:3;stroke-linecap:round;stroke-linejoin:round;stroke-miterlimit:10;stroke-dasharray:none;stroke-opacity:1"
             id="path158" />
        </g>
        <g
           id="g160"
           transform="translate(207.1611,368.207)">
          <path
             d="m 0,0 c 0.281,-4.413 2.057,-8.717 4.968,-12.045 2.912,-3.329 6.942,-5.661 11.278,-6.526"
             style="fill:none;stroke:#01c4ff;stroke-width:3;stroke-linecap:round;stroke-linejoin:round;stroke-miterlimit:10;stroke-dasharray:none;stroke-opacity:1"
             id="path162" />
        </g>
        <g
           id="g164"
           transform="translate(143.1104,327.5557)">
          <path
             d="m 0,0 c 4.188,-3.502 9.802,-5.247 15.238,-4.736 5.435,0.511 10.625,3.273 14.087,7.494"
             style="fill:none;stroke:#01c4ff;stroke-width:3;stroke-linecap:round;stroke-linejoin:round;stroke-miterlimit:10;stroke-dasharray:none;stroke-opacity:1"
             id="path166" />
        </g>
        <g
           id="g168"
           transform="translate(184.8232,307.522)">
          <path
             d="m 0,0 c 0.431,6.254 3.273,12.311 7.809,16.638 4.535,4.327 10.718,6.883 16.985,7.021"
             style="fill:none;stroke:#01c4ff;stroke-width:3;stroke-linecap:round;stroke-linejoin:round;stroke-miterlimit:10;stroke-dasharray:none;stroke-opacity:1"
             id="path170" />
        </g>
        <g
           id="g172"
           transform="translate(181.0137,359.4819)">
          <path
             d="M 0,0 C 5.613,-2.309 9.477,-8.322 9.246,-14.386"
             style="fill:none;stroke:#01c4ff;stroke-width:3;stroke-linecap:round;stroke-linejoin:round;stroke-miterlimit:10;stroke-dasharray:none;stroke-opacity:1"
             id="path174" />
        </g>
        <g
           id="g176"
           transform="translate(233.2261,336.6382)">
          <path
             d="m 0,0 c 1.317,-2.071 3.308,-3.705 5.596,-4.593 2.287,-0.888 4.86,-1.025 7.229,-0.385"
             style="fill:none;stroke:#01c4ff;stroke-width:3;stroke-linecap:round;stroke-linejoin:round;stroke-miterlimit:10;stroke-dasharray:none;stroke-opacity:1"
             id="path178" />
        </g>
      </g>
    </g>
  </g>
</svg>
